<svg width="977" height="211" viewBox="0 0 977 211" fill="none" xmlns="http://www.w3.org/2000/svg">
<path d="M197.888 47.448C197.888 46.552 197.536 45.7733 196.832 45.112C196.149 44.4507 195.178 44.12 193.92 44.12C192.853 44.12 192.01 44.344 191.392 44.792C190.773 45.2187 190.464 45.8053 190.464 46.552C190.464 46.936 190.538 47.288 190.688 47.608C190.837 47.9067 191.093 48.184 191.456 48.44C191.84 48.6747 192.33 48.888 192.928 49.08C193.546 49.272 194.325 49.4533 195.264 49.624C197.61 50.0507 199.402 50.7653 200.64 51.768C201.877 52.7707 202.496 54.2533 202.496 56.216V56.6C202.496 57.6453 202.304 58.5947 201.92 59.448C201.557 60.28 201.024 60.9947 200.32 61.592C199.616 62.1893 198.762 62.648 197.76 62.968C196.757 63.288 195.626 63.448 194.368 63.448C192.896 63.448 191.594 63.2453 190.464 62.84C189.354 62.4133 188.426 61.8373 187.68 61.112C186.933 60.3653 186.368 59.5013 185.984 58.52C185.6 57.5173 185.408 56.4293 185.408 55.256V54.296H189.632V55.064C189.632 56.408 190.016 57.4853 190.784 58.296C191.573 59.0853 192.789 59.48 194.432 59.48C195.712 59.48 196.661 59.2027 197.28 58.648C197.898 58.0933 198.208 57.432 198.208 56.664C198.208 56.3013 198.144 55.96 198.016 55.64C197.888 55.2987 197.664 55 197.344 54.744C197.024 54.4667 196.586 54.2213 196.032 54.008C195.477 53.7947 194.773 53.6133 193.92 53.464C192.789 53.272 191.754 53.0267 190.816 52.728C189.877 52.408 189.056 51.992 188.352 51.48C187.669 50.968 187.136 50.328 186.752 49.56C186.368 48.792 186.176 47.8533 186.176 46.744V46.552C186.176 45.6347 186.357 44.792 186.72 44.024C187.104 43.2347 187.626 42.552 188.288 41.976C188.97 41.4 189.781 40.952 190.72 40.632C191.68 40.312 192.746 40.152 193.92 40.152C195.242 40.152 196.416 40.344 197.44 40.728C198.464 41.0907 199.317 41.592 200 42.232C200.704 42.872 201.226 43.608 201.568 44.44C201.93 45.272 202.112 46.1467 202.112 47.064V48.216H197.888V47.448ZM216.618 60.696C216.191 61.6987 215.594 62.4133 214.826 62.84C214.058 63.2453 213.162 63.448 212.138 63.448C211.178 63.448 210.271 63.2667 209.418 62.904C208.586 62.5413 207.85 62.008 207.21 61.304C206.57 60.6 206.058 59.7467 205.674 58.744C205.311 57.7413 205.13 56.6 205.13 55.32V54.808C205.13 53.5493 205.311 52.4187 205.674 51.416C206.036 50.4133 206.527 49.56 207.146 48.856C207.764 48.152 208.479 47.6187 209.29 47.256C210.122 46.872 211.007 46.68 211.946 46.68C213.076 46.68 213.983 46.872 214.666 47.256C215.37 47.64 215.924 48.2373 216.33 49.048H216.906V47.128H220.938V58.2C220.938 58.84 221.226 59.16 221.802 59.16H222.41V63H219.658C218.932 63 218.335 62.7867 217.866 62.36C217.418 61.9333 217.194 61.3787 217.194 60.696H216.618ZM213.034 59.608C214.207 59.608 215.146 59.224 215.85 58.456C216.554 57.6667 216.906 56.6 216.906 55.256V54.872C216.906 53.528 216.554 52.472 215.85 51.704C215.146 50.9147 214.207 50.52 213.034 50.52C211.86 50.52 210.922 50.9147 210.218 51.704C209.514 52.472 209.162 53.528 209.162 54.872V55.256C209.162 56.6 209.514 57.6667 210.218 58.456C210.922 59.224 211.86 59.608 213.034 59.608ZM225.491 47.128H230.195V40.6H234.227V47.128H239.955V50.968H234.227V58.2C234.227 58.84 234.515 59.16 235.091 59.16H239.379V63H232.659C231.934 63 231.337 62.7653 230.867 62.296C230.419 61.8267 230.195 61.2293 230.195 60.504V50.968H225.491V47.128ZM256.285 47.128H260.317V63H256.285V60.696H255.709C255.005 62.5307 253.49 63.448 251.165 63.448C250.376 63.448 249.64 63.32 248.957 63.064C248.274 62.808 247.677 62.4133 247.165 61.88C246.653 61.3467 246.248 60.6853 245.949 59.896C245.672 59.0853 245.533 58.136 245.533 57.048V47.128H249.565V56.216C249.565 57.3467 249.832 58.232 250.365 58.872C250.898 59.4907 251.698 59.8 252.765 59.8C253.981 59.8 254.866 59.416 255.421 58.648C255.997 57.8587 256.285 56.792 256.285 55.448V47.128ZM264.359 47.128H271.079V49.432H271.655C271.953 48.5573 272.455 47.8853 273.159 47.416C273.884 46.9253 274.748 46.68 275.751 46.68C277.329 46.68 278.599 47.1813 279.559 48.184C280.519 49.1653 280.999 50.6693 280.999 52.696V53.4L276.839 53.784V53.336C276.839 52.4613 276.615 51.768 276.167 51.256C275.719 50.7227 275.047 50.456 274.151 50.456C273.255 50.456 272.551 50.7653 272.039 51.384C271.527 52.0027 271.271 52.888 271.271 54.04V59.16H274.919V63H263.975V59.16H267.239V50.968H264.359V47.128ZM288.753 63H284.721V47.128H288.753V49.496H289.329C289.691 48.6 290.278 47.9067 291.089 47.416C291.899 46.9253 292.849 46.68 293.937 46.68C294.705 46.68 295.419 46.808 296.081 47.064C296.763 47.2987 297.361 47.672 297.873 48.184C298.385 48.696 298.779 49.3467 299.057 50.136C299.355 50.9253 299.505 51.864 299.505 52.952V63H295.473V53.976C295.473 52.8453 295.195 51.96 294.641 51.32C294.107 50.6587 293.329 50.328 292.305 50.328C291.11 50.328 290.214 50.7333 289.617 51.544C289.041 52.3333 288.753 53.4 288.753 54.744V63Z" fill="black"/>
<path d="M43.1226 88.6H50.5466L51.8266 105.432V108.696H52.5946V105.432L53.8746 88.6H61.2986V111H57.4586V96.024L57.8426 90.904H57.0746L55.4106 111H49.0746L47.3466 90.904H46.5786L46.9626 96.024V111H43.1226V88.6ZM68.0604 104.376C68.0817 104.845 68.1884 105.283 68.3804 105.688C68.5937 106.072 68.871 106.413 69.2124 106.712C69.575 106.989 69.9804 107.213 70.4284 107.384C70.8977 107.533 71.3884 107.608 71.9004 107.608C72.903 107.608 73.671 107.437 74.2044 107.096C74.7377 106.733 75.1217 106.307 75.3564 105.816L78.8124 107.736C78.6204 108.141 78.3537 108.568 78.0124 109.016C77.671 109.443 77.223 109.837 76.6684 110.2C76.135 110.563 75.4737 110.861 74.6844 111.096C73.9164 111.331 73.0097 111.448 71.9644 111.448C70.7697 111.448 69.6817 111.256 68.7004 110.872C67.719 110.488 66.8657 109.933 66.1404 109.208C65.4364 108.483 64.8817 107.597 64.4764 106.552C64.0924 105.507 63.9004 104.323 63.9004 103V102.808C63.9004 101.592 64.103 100.483 64.5084 99.48C64.935 98.4773 65.511 97.624 66.2364 96.92C66.9617 96.216 67.8044 95.672 68.7644 95.288C69.7457 94.8827 70.791 94.68 71.9004 94.68C73.2657 94.68 74.439 94.9253 75.4204 95.416C76.4017 95.8853 77.2124 96.4933 77.8524 97.24C78.4924 97.9653 78.9617 98.776 79.2604 99.672C79.559 100.547 79.7084 101.4 79.7084 102.232V104.376H68.0604ZM71.8684 98.328C70.8444 98.328 70.0124 98.5947 69.3724 99.128C68.7324 99.64 68.3164 100.237 68.1244 100.92H75.6124C75.4844 100.173 75.079 99.5547 74.3964 99.064C73.735 98.5733 72.8924 98.328 71.8684 98.328ZM83.3341 95.128H90.0541V97.432H90.6301C90.9288 96.5573 91.4301 95.8853 92.1341 95.416C92.8594 94.9253 93.7234 94.68 94.7261 94.68C96.3048 94.68 97.5741 95.1813 98.5341 96.184C99.4941 97.1653 99.9741 98.6693 99.9741 100.696V101.4L95.8141 101.784V101.336C95.8141 100.461 95.5901 99.768 95.1421 99.256C94.6941 98.7227 94.0221 98.456 93.1261 98.456C92.2301 98.456 91.5261 98.7653 91.0141 99.384C90.5021 100.003 90.2461 100.888 90.2461 102.04V107.16H93.8941V111H82.9501V107.16H86.2141V98.968H83.3341V95.128ZM119.184 105.176C118.821 107.053 117.957 108.568 116.592 109.72C115.248 110.872 113.445 111.448 111.184 111.448C110.011 111.448 108.912 111.267 107.888 110.904C106.885 110.541 106.011 110.019 105.264 109.336C104.517 108.653 103.931 107.811 103.504 106.808C103.077 105.805 102.864 104.664 102.864 103.384V103C102.864 101.72 103.077 100.568 103.504 99.544C103.931 98.52 104.517 97.6453 105.264 96.92C106.032 96.1947 106.917 95.64 107.92 95.256C108.944 94.872 110.032 94.68 111.184 94.68C113.403 94.68 115.195 95.256 116.56 96.408C117.947 97.56 118.821 99.0747 119.184 100.952L115.216 101.976C115.088 101.037 114.683 100.227 114 99.544C113.317 98.8613 112.357 98.52 111.12 98.52C110.544 98.52 110 98.6267 109.488 98.84C108.976 99.0533 108.528 99.3627 108.144 99.768C107.76 100.152 107.451 100.632 107.216 101.208C107.003 101.763 106.896 102.392 106.896 103.096V103.288C106.896 103.992 107.003 104.621 107.216 105.176C107.451 105.709 107.76 106.157 108.144 106.52C108.528 106.883 108.976 107.16 109.488 107.352C110 107.523 110.544 107.608 111.12 107.608C112.357 107.608 113.296 107.299 113.936 106.68C114.597 106.061 115.024 105.229 115.216 104.184L119.184 105.176ZM134.042 95.128H138.074V111H134.042V108.696H133.466C132.762 110.531 131.247 111.448 128.922 111.448C128.132 111.448 127.396 111.32 126.714 111.064C126.031 110.808 125.434 110.413 124.922 109.88C124.41 109.347 124.004 108.685 123.706 107.896C123.428 107.085 123.29 106.136 123.29 105.048V95.128H127.322V104.216C127.322 105.347 127.588 106.232 128.122 106.872C128.655 107.491 129.455 107.8 130.522 107.8C131.738 107.8 132.623 107.416 133.178 106.648C133.754 105.859 134.042 104.792 134.042 103.448V95.128ZM142.115 95.128H148.835V97.432H149.411C149.71 96.5573 150.211 95.8853 150.915 95.416C151.641 94.9253 152.505 94.68 153.507 94.68C155.086 94.68 156.355 95.1813 157.315 96.184C158.275 97.1653 158.755 98.6693 158.755 100.696V101.4L154.595 101.784V101.336C154.595 100.461 154.371 99.768 153.923 99.256C153.475 98.7227 152.803 98.456 151.907 98.456C151.011 98.456 150.307 98.7653 149.795 99.384C149.283 100.003 149.027 100.888 149.027 102.04V107.16H152.675V111H141.731V107.16H144.995V98.968H142.115V95.128ZM173.229 95.128H177.261V114.904C177.261 115.629 177.026 116.227 176.557 116.696C176.109 117.165 175.522 117.4 174.797 117.4H165.357V113.56H172.365C172.941 113.56 173.229 113.24 173.229 112.6V108.696H172.653C171.949 110.531 170.434 111.448 168.109 111.448C167.32 111.448 166.584 111.32 165.901 111.064C165.218 110.808 164.621 110.413 164.109 109.88C163.597 109.347 163.192 108.685 162.893 107.896C162.616 107.085 162.477 106.136 162.477 105.048V95.128H166.509V104.216C166.509 105.347 166.776 106.232 167.309 106.872C167.842 107.491 168.642 107.8 169.709 107.8C170.925 107.8 171.81 107.416 172.365 106.648C172.941 105.859 173.229 104.792 173.229 103.448V95.128Z" fill="black"/>
<path d="M369.413 96.888H369.989V76.6H374.213V99H365.957L363.333 78.712H362.757V99H358.533V76.6H366.789L369.413 96.888ZM382.223 92.376C382.244 92.8453 382.351 93.2827 382.543 93.688C382.756 94.072 383.034 94.4133 383.375 94.712C383.738 94.9893 384.143 95.2133 384.591 95.384C385.06 95.5333 385.551 95.608 386.063 95.608C387.066 95.608 387.834 95.4373 388.367 95.096C388.9 94.7333 389.284 94.3067 389.519 93.816L392.975 95.736C392.783 96.1413 392.516 96.568 392.175 97.016C391.834 97.4427 391.386 97.8373 390.831 98.2C390.298 98.5627 389.636 98.8613 388.847 99.096C388.079 99.3307 387.172 99.448 386.127 99.448C384.932 99.448 383.844 99.256 382.863 98.872C381.882 98.488 381.028 97.9333 380.303 97.208C379.599 96.4827 379.044 95.5973 378.639 94.552C378.255 93.5067 378.063 92.3227 378.063 91V90.808C378.063 89.592 378.266 88.4827 378.671 87.48C379.098 86.4773 379.674 85.624 380.399 84.92C381.124 84.216 381.967 83.672 382.927 83.288C383.908 82.8827 384.954 82.68 386.063 82.68C387.428 82.68 388.602 82.9253 389.583 83.416C390.564 83.8853 391.375 84.4933 392.015 85.24C392.655 85.9653 393.124 86.776 393.423 87.672C393.722 88.5467 393.871 89.4 393.871 90.232V92.376H382.223ZM386.031 86.328C385.007 86.328 384.175 86.5947 383.535 87.128C382.895 87.64 382.479 88.2373 382.287 88.92H389.775C389.647 88.1733 389.242 87.5547 388.559 87.064C387.898 86.5733 387.055 86.328 386.031 86.328ZM401.465 105.4H397.433V83.128H401.465V85.432H402.041C402.468 84.5573 403.086 83.8853 403.897 83.416C404.708 82.9253 405.742 82.68 407.001 82.68C407.94 82.68 408.825 82.8613 409.657 83.224C410.51 83.5867 411.246 84.12 411.865 84.824C412.505 85.5067 413.006 86.3493 413.369 87.352C413.753 88.3547 413.945 89.496 413.945 90.776V91.352C413.945 92.6533 413.764 93.8053 413.401 94.808C413.038 95.8107 412.548 96.664 411.929 97.368C411.31 98.0507 410.574 98.5733 409.721 98.936C408.889 99.2773 407.982 99.448 407.001 99.448C406.276 99.448 405.646 99.3733 405.113 99.224C404.58 99.0747 404.11 98.872 403.705 98.616C403.321 98.36 402.99 98.072 402.713 97.752C402.457 97.4107 402.233 97.0587 402.041 96.696H401.465V105.4ZM405.689 95.608C406.948 95.608 407.961 95.224 408.729 94.456C409.518 93.6667 409.913 92.6 409.913 91.256V90.872C409.913 89.528 409.518 88.472 408.729 87.704C407.961 86.9147 406.948 86.52 405.689 86.52C404.43 86.52 403.406 86.9253 402.617 87.736C401.849 88.5253 401.465 89.5707 401.465 90.872V91.256C401.465 92.5573 401.849 93.6133 402.617 94.424C403.406 95.2133 404.43 95.608 405.689 95.608ZM417.411 83.128H422.115V76.6H426.147V83.128H431.875V86.968H426.147V94.2C426.147 94.84 426.435 95.16 427.011 95.16H431.299V99H424.579C423.853 99 423.256 98.7653 422.787 98.296C422.339 97.8267 422.115 97.2293 422.115 96.504V86.968H417.411V83.128ZM448.204 83.128H452.236V99H448.204V96.696H447.628C446.924 98.5307 445.41 99.448 443.084 99.448C442.295 99.448 441.559 99.32 440.876 99.064C440.194 98.808 439.596 98.4133 439.084 97.88C438.572 97.3467 438.167 96.6853 437.868 95.896C437.591 95.0853 437.452 94.136 437.452 93.048V83.128H441.484V92.216C441.484 93.3467 441.751 94.232 442.284 94.872C442.818 95.4907 443.618 95.8 444.684 95.8C445.9 95.8 446.786 95.416 447.34 94.648C447.916 93.8587 448.204 92.792 448.204 91.448V83.128ZM461.078 99H457.046V83.128H461.078V85.496H461.654C462.017 84.6 462.603 83.9067 463.414 83.416C464.225 82.9253 465.174 82.68 466.262 82.68C467.03 82.68 467.745 82.808 468.406 83.064C469.089 83.2987 469.686 83.672 470.198 84.184C470.71 84.696 471.105 85.3467 471.382 86.136C471.681 86.9253 471.83 87.864 471.83 88.952V99H467.798V89.976C467.798 88.8453 467.521 87.96 466.966 87.32C466.433 86.6587 465.654 86.328 464.63 86.328C463.435 86.328 462.539 86.7333 461.942 87.544C461.366 88.3333 461.078 89.4 461.078 90.744V99ZM480.192 92.376C480.213 92.8453 480.32 93.2827 480.512 93.688C480.725 94.072 481.003 94.4133 481.344 94.712C481.707 94.9893 482.112 95.2133 482.56 95.384C483.029 95.5333 483.52 95.608 484.032 95.608C485.035 95.608 485.803 95.4373 486.336 95.096C486.869 94.7333 487.253 94.3067 487.488 93.816L490.944 95.736C490.752 96.1413 490.485 96.568 490.144 97.016C489.803 97.4427 489.355 97.8373 488.8 98.2C488.267 98.5627 487.605 98.8613 486.816 99.096C486.048 99.3307 485.141 99.448 484.096 99.448C482.901 99.448 481.813 99.256 480.832 98.872C479.851 98.488 478.997 97.9333 478.272 97.208C477.568 96.4827 477.013 95.5973 476.608 94.552C476.224 93.5067 476.032 92.3227 476.032 91V90.808C476.032 89.592 476.235 88.4827 476.64 87.48C477.067 86.4773 477.643 85.624 478.368 84.92C479.093 84.216 479.936 83.672 480.896 83.288C481.877 82.8827 482.923 82.68 484.032 82.68C485.397 82.68 486.571 82.9253 487.552 83.416C488.533 83.8853 489.344 84.4933 489.984 85.24C490.624 85.9653 491.093 86.776 491.392 87.672C491.691 88.5467 491.84 89.4 491.84 90.232V92.376H480.192ZM484 86.328C482.976 86.328 482.144 86.5947 481.504 87.128C480.864 87.64 480.448 88.2373 480.256 88.92H487.744C487.616 88.1733 487.211 87.5547 486.528 87.064C485.867 86.5733 485.024 86.328 484 86.328Z" fill="black"/>
<path d="M414.218 163.28C414.218 165.605 413.589 167.387 412.33 168.624C411.072 169.84 409.344 170.448 407.146 170.448C406.016 170.448 404.992 170.299 404.074 170C403.157 169.68 402.368 169.221 401.706 168.624C401.045 168.005 400.533 167.259 400.17 166.384C399.808 165.488 399.626 164.453 399.626 163.28V161.168H403.85V163.28C403.85 164.283 404.128 165.072 404.682 165.648C405.237 166.203 406.016 166.48 407.018 166.48C407.957 166.48 408.682 166.203 409.194 165.648C409.728 165.093 409.994 164.304 409.994 163.28V151.568H407.69V147.6H416.138V151.568H414.218V163.28ZM430.516 154.128H434.548V170H430.516V167.696H429.94C429.236 169.531 427.721 170.448 425.396 170.448C424.607 170.448 423.871 170.32 423.188 170.064C422.505 169.808 421.908 169.413 421.396 168.88C420.884 168.347 420.479 167.685 420.18 166.896C419.903 166.085 419.764 165.136 419.764 164.048V154.128H423.796V163.216C423.796 164.347 424.063 165.232 424.596 165.872C425.129 166.491 425.929 166.8 426.996 166.8C428.212 166.8 429.097 166.416 429.652 165.648C430.228 164.859 430.516 163.792 430.516 162.448V154.128ZM442.558 176.4H438.526V154.128H442.558V156.432H443.134C443.561 155.557 444.179 154.885 444.99 154.416C445.801 153.925 446.835 153.68 448.094 153.68C449.033 153.68 449.918 153.861 450.75 154.224C451.603 154.587 452.339 155.12 452.958 155.824C453.598 156.507 454.099 157.349 454.462 158.352C454.846 159.355 455.038 160.496 455.038 161.776V162.352C455.038 163.653 454.857 164.805 454.494 165.808C454.131 166.811 453.641 167.664 453.022 168.368C452.403 169.051 451.667 169.573 450.814 169.936C449.982 170.277 449.075 170.448 448.094 170.448C447.369 170.448 446.739 170.373 446.206 170.224C445.673 170.075 445.203 169.872 444.798 169.616C444.414 169.36 444.083 169.072 443.806 168.752C443.55 168.411 443.326 168.059 443.134 167.696H442.558V176.4ZM446.782 166.608C448.041 166.608 449.054 166.224 449.822 165.456C450.611 164.667 451.006 163.6 451.006 162.256V161.872C451.006 160.528 450.611 159.472 449.822 158.704C449.054 157.915 448.041 157.52 446.782 157.52C445.523 157.52 444.499 157.925 443.71 158.736C442.942 159.525 442.558 160.571 442.558 161.872V162.256C442.558 163.557 442.942 164.613 443.71 165.424C444.499 166.213 445.523 166.608 446.782 166.608ZM459.24 166.16H464.616V157.968H459.624V154.128H468.648V166.16H473.256V170H459.24V166.16ZM469.64 149.424C469.64 149.851 469.554 150.256 469.384 150.64C469.234 151.003 469.021 151.323 468.744 151.6C468.466 151.856 468.136 152.069 467.752 152.24C467.389 152.389 467.005 152.464 466.6 152.464C466.173 152.464 465.778 152.389 465.416 152.24C465.053 152.069 464.733 151.856 464.456 151.6C464.178 151.323 463.954 151.003 463.784 150.64C463.634 150.256 463.56 149.851 463.56 149.424C463.56 148.997 463.634 148.603 463.784 148.24C463.954 147.856 464.178 147.536 464.456 147.28C464.733 147.003 465.053 146.789 465.416 146.64C465.778 146.469 466.173 146.384 466.6 146.384C467.005 146.384 467.389 146.469 467.752 146.64C468.136 146.789 468.466 147.003 468.744 147.28C469.021 147.536 469.234 147.856 469.384 148.24C469.554 148.603 469.64 148.997 469.64 149.424ZM478.097 154.128H482.801V147.6H486.833V154.128H492.561V157.968H486.833V165.2C486.833 165.84 487.121 166.16 487.697 166.16H491.985V170H485.265C484.54 170 483.943 169.765 483.473 169.296C483.025 168.827 482.801 168.229 482.801 167.504V157.968H478.097V154.128ZM501.691 163.376C501.712 163.845 501.819 164.283 502.011 164.688C502.224 165.072 502.502 165.413 502.843 165.712C503.206 165.989 503.611 166.213 504.059 166.384C504.528 166.533 505.019 166.608 505.531 166.608C506.534 166.608 507.302 166.437 507.835 166.096C508.368 165.733 508.752 165.307 508.987 164.816L512.443 166.736C512.251 167.141 511.984 167.568 511.643 168.016C511.302 168.443 510.854 168.837 510.299 169.2C509.766 169.563 509.104 169.861 508.315 170.096C507.547 170.331 506.64 170.448 505.595 170.448C504.4 170.448 503.312 170.256 502.331 169.872C501.35 169.488 500.496 168.933 499.771 168.208C499.067 167.483 498.512 166.597 498.107 165.552C497.723 164.507 497.531 163.323 497.531 162V161.808C497.531 160.592 497.734 159.483 498.139 158.48C498.566 157.477 499.142 156.624 499.867 155.92C500.592 155.216 501.435 154.672 502.395 154.288C503.376 153.883 504.422 153.68 505.531 153.68C506.896 153.68 508.07 153.925 509.051 154.416C510.032 154.885 510.843 155.493 511.483 156.24C512.123 156.965 512.592 157.776 512.891 158.672C513.19 159.547 513.339 160.4 513.339 161.232V163.376H501.691ZM505.499 157.328C504.475 157.328 503.643 157.595 503.003 158.128C502.363 158.64 501.947 159.237 501.755 159.92H509.243C509.115 159.173 508.71 158.555 508.027 158.064C507.366 157.573 506.523 157.328 505.499 157.328ZM516.965 154.128H523.685V156.432H524.261C524.56 155.557 525.061 154.885 525.765 154.416C526.49 153.925 527.354 153.68 528.357 153.68C529.936 153.68 531.205 154.181 532.165 155.184C533.125 156.165 533.605 157.669 533.605 159.696V160.4L529.445 160.784V160.336C529.445 159.461 529.221 158.768 528.773 158.256C528.325 157.723 527.653 157.456 526.757 157.456C525.861 157.456 525.157 157.765 524.645 158.384C524.133 159.003 523.877 159.888 523.877 161.04V166.16H527.525V170H516.581V166.16H519.845V157.968H516.965V154.128Z" fill="black"/>
<path d="M419.652 13.6H424.004L428.388 33.888H428.964L433.348 13.6H437.7L432.644 36H424.708L419.652 13.6ZM444.525 29.376C444.547 29.8453 444.653 30.2827 444.845 30.688C445.059 31.072 445.336 31.4133 445.677 31.712C446.04 31.9893 446.445 32.2133 446.893 32.384C447.363 32.5333 447.853 32.608 448.365 32.608C449.368 32.608 450.136 32.4373 450.669 32.096C451.203 31.7333 451.587 31.3067 451.821 30.816L455.277 32.736C455.085 33.1413 454.819 33.568 454.477 34.016C454.136 34.4427 453.688 34.8373 453.133 35.2C452.6 35.5627 451.939 35.8613 451.149 36.096C450.381 36.3307 449.475 36.448 448.429 36.448C447.235 36.448 446.147 36.256 445.165 35.872C444.184 35.488 443.331 34.9333 442.605 34.208C441.901 33.4827 441.347 32.5973 440.941 31.552C440.557 30.5067 440.365 29.3227 440.365 28V27.808C440.365 26.592 440.568 25.4827 440.973 24.48C441.4 23.4773 441.976 22.624 442.701 21.92C443.427 21.216 444.269 20.672 445.229 20.288C446.211 19.8827 447.256 19.68 448.365 19.68C449.731 19.68 450.904 19.9253 451.885 20.416C452.867 20.8853 453.677 21.4933 454.317 22.24C454.957 22.9653 455.427 23.776 455.725 24.672C456.024 25.5467 456.173 26.4 456.173 27.232V29.376H444.525ZM448.333 23.328C447.309 23.328 446.477 23.5947 445.837 24.128C445.197 24.64 444.781 25.2373 444.589 25.92H452.077C451.949 25.1733 451.544 24.5547 450.861 24.064C450.2 23.5733 449.357 23.328 448.333 23.328ZM464.599 36H460.567V20.128H464.599V22.496H465.175C465.538 21.6 466.125 20.9067 466.935 20.416C467.746 19.9253 468.695 19.68 469.783 19.68C470.551 19.68 471.266 19.808 471.927 20.064C472.61 20.2987 473.207 20.672 473.719 21.184C474.231 21.696 474.626 22.3467 474.903 23.136C475.202 23.9253 475.351 24.864 475.351 25.952V36H471.319V26.976C471.319 25.8453 471.042 24.96 470.487 24.32C469.954 23.6587 469.175 23.328 468.151 23.328C466.957 23.328 466.061 23.7333 465.463 24.544C464.887 25.3333 464.599 26.4 464.599 27.744V36ZM490.913 20.128H494.945V36H490.913V33.696H490.337C489.633 35.5307 488.118 36.448 485.793 36.448C485.004 36.448 484.268 36.32 483.585 36.064C482.902 35.808 482.305 35.4133 481.793 34.88C481.281 34.3467 480.876 33.6853 480.577 32.896C480.3 32.0853 480.161 31.136 480.161 30.048V20.128H484.193V29.216C484.193 30.3467 484.46 31.232 484.993 31.872C485.526 32.4907 486.326 32.8 487.393 32.8C488.609 32.8 489.494 32.416 490.049 31.648C490.625 30.8587 490.913 29.792 490.913 28.448V20.128ZM504.811 24.608C504.811 25.12 505.077 25.4933 505.611 25.728C506.144 25.9413 507.115 26.1227 508.523 26.272C510.144 26.4427 511.467 26.9333 512.491 27.744C513.515 28.5333 514.027 29.6427 514.027 31.072V31.264C514.027 32.8427 513.451 34.1013 512.299 35.04C511.147 35.9787 509.525 36.448 507.435 36.448C506.197 36.448 505.141 36.288 504.267 35.968C503.392 35.648 502.667 35.2533 502.091 34.784C501.515 34.2933 501.067 33.76 500.747 33.184C500.448 32.5867 500.245 32.0107 500.139 31.456L503.851 30.24C504.021 30.9227 504.373 31.52 504.907 32.032C505.461 32.544 506.304 32.8 507.435 32.8C508.437 32.8 509.12 32.6507 509.483 32.352C509.867 32.032 510.059 31.6907 510.059 31.328C510.059 31.1147 510.005 30.9227 509.899 30.752C509.813 30.56 509.643 30.3893 509.387 30.24C509.131 30.0693 508.779 29.9307 508.331 29.824C507.904 29.7173 507.36 29.632 506.699 29.568C504.907 29.4187 503.477 28.96 502.411 28.192C501.365 27.4027 500.843 26.2507 500.843 24.736V24.544C500.843 23.7547 501.013 23.0613 501.355 22.464C501.696 21.8667 502.144 21.3653 502.699 20.96C503.253 20.5333 503.893 20.2133 504.619 20C505.344 19.7867 506.091 19.68 506.859 19.68C507.861 19.68 508.725 19.808 509.451 20.064C510.197 20.2987 510.827 20.6187 511.339 21.024C511.851 21.408 512.267 21.8453 512.587 22.336C512.907 22.8053 513.152 23.264 513.323 23.712L509.675 25.184C509.483 24.608 509.152 24.16 508.683 23.84C508.213 23.4987 507.605 23.328 506.859 23.328C506.176 23.328 505.664 23.456 505.323 23.712C504.981 23.9467 504.811 24.2453 504.811 24.608Z" fill="black"/>
<path d="M651.564 112.6H658.988L660.268 129.432V132.696H661.036V129.432L662.316 112.6H669.74V135H665.9V120.024L666.284 114.904H665.516L663.852 135H657.516L655.788 114.904H655.02L655.404 120.024V135H651.564V112.6ZM683.222 132.696C682.796 133.699 682.198 134.413 681.43 134.84C680.662 135.245 679.766 135.448 678.742 135.448C677.782 135.448 676.876 135.267 676.022 134.904C675.19 134.541 674.454 134.008 673.814 133.304C673.174 132.6 672.662 131.747 672.278 130.744C671.916 129.741 671.734 128.6 671.734 127.32V126.808C671.734 125.549 671.916 124.419 672.278 123.416C672.641 122.413 673.132 121.56 673.75 120.856C674.369 120.152 675.084 119.619 675.894 119.256C676.726 118.872 677.612 118.68 678.55 118.68C679.681 118.68 680.588 118.872 681.27 119.256C681.974 119.64 682.529 120.237 682.934 121.048H683.51V119.128H687.542V130.2C687.542 130.84 687.83 131.16 688.406 131.16H689.014V135H686.262C685.537 135 684.94 134.787 684.47 134.36C684.022 133.933 683.798 133.379 683.798 132.696H683.222ZM679.638 131.608C680.812 131.608 681.75 131.224 682.454 130.456C683.158 129.667 683.51 128.6 683.51 127.256V126.872C683.51 125.528 683.158 124.472 682.454 123.704C681.75 122.915 680.812 122.52 679.638 122.52C678.465 122.52 677.526 122.915 676.822 123.704C676.118 124.472 675.766 125.528 675.766 126.872V127.256C675.766 128.6 676.118 129.667 676.822 130.456C677.526 131.224 678.465 131.608 679.638 131.608ZM691.776 119.128H698.496V121.432H699.072C699.371 120.557 699.872 119.885 700.576 119.416C701.301 118.925 702.165 118.68 703.168 118.68C704.747 118.68 706.016 119.181 706.976 120.184C707.936 121.165 708.416 122.669 708.416 124.696V125.4L704.256 125.784V125.336C704.256 124.461 704.032 123.768 703.584 123.256C703.136 122.723 702.464 122.456 701.568 122.456C700.672 122.456 699.968 122.765 699.456 123.384C698.944 124.003 698.688 124.888 698.688 126.04V131.16H702.336V135H691.392V131.16H694.656V122.968H691.776V119.128ZM717.194 123.608C717.194 124.12 717.46 124.493 717.994 124.728C718.527 124.941 719.498 125.123 720.906 125.272C722.527 125.443 723.85 125.933 724.874 126.744C725.898 127.533 726.41 128.643 726.41 130.072V130.264C726.41 131.843 725.834 133.101 724.682 134.04C723.53 134.979 721.908 135.448 719.818 135.448C718.58 135.448 717.524 135.288 716.65 134.968C715.775 134.648 715.05 134.253 714.474 133.784C713.898 133.293 713.45 132.76 713.13 132.184C712.831 131.587 712.628 131.011 712.522 130.456L716.234 129.24C716.404 129.923 716.756 130.52 717.29 131.032C717.844 131.544 718.687 131.8 719.818 131.8C720.82 131.8 721.503 131.651 721.866 131.352C722.25 131.032 722.442 130.691 722.442 130.328C722.442 130.115 722.388 129.923 722.282 129.752C722.196 129.56 722.026 129.389 721.77 129.24C721.514 129.069 721.162 128.931 720.714 128.824C720.287 128.717 719.743 128.632 719.082 128.568C717.29 128.419 715.86 127.96 714.794 127.192C713.748 126.403 713.226 125.251 713.226 123.736V123.544C713.226 122.755 713.396 122.061 713.738 121.464C714.079 120.867 714.527 120.365 715.082 119.96C715.636 119.533 716.276 119.213 717.002 119C717.727 118.787 718.474 118.68 719.242 118.68C720.244 118.68 721.108 118.808 721.834 119.064C722.58 119.299 723.21 119.619 723.722 120.024C724.234 120.408 724.65 120.845 724.97 121.336C725.29 121.805 725.535 122.264 725.706 122.712L722.058 124.184C721.866 123.608 721.535 123.16 721.066 122.84C720.596 122.499 719.988 122.328 719.242 122.328C718.559 122.328 718.047 122.456 717.706 122.712C717.364 122.947 717.194 123.245 717.194 123.608Z" fill="black"/>
<path d="M622.321 40.6V55.256C622.321 57.816 621.638 59.8213 620.273 61.272C618.929 62.7227 616.924 63.448 614.257 63.448C611.59 63.448 609.574 62.7227 608.209 61.272C606.865 59.8213 606.193 57.816 606.193 55.256V40.6H610.417V55.256C610.417 56.5787 610.726 57.6133 611.345 58.36C611.964 59.1067 612.934 59.48 614.257 59.48C615.58 59.48 616.55 59.1067 617.169 58.36C617.788 57.6133 618.097 56.5787 618.097 55.256V40.6H622.321ZM625.787 47.128H632.507V49.432H633.083C633.382 48.5573 633.883 47.8853 634.587 47.416C635.312 46.9253 636.176 46.68 637.179 46.68C638.758 46.68 640.027 47.1813 640.987 48.184C641.947 49.1653 642.427 50.6693 642.427 52.696V53.4L638.267 53.784V53.336C638.267 52.4613 638.043 51.768 637.595 51.256C637.147 50.7227 636.475 50.456 635.579 50.456C634.683 50.456 633.979 50.7653 633.467 51.384C632.955 52.0027 632.699 52.888 632.699 54.04V59.16H636.347V63H625.403V59.16H628.667V50.968H625.787V47.128ZM656.421 60.696C655.994 61.6987 655.397 62.4133 654.629 62.84C653.861 63.2453 652.965 63.448 651.941 63.448C650.981 63.448 650.074 63.2667 649.221 62.904C648.389 62.5413 647.653 62.008 647.013 61.304C646.373 60.6 645.861 59.7467 645.477 58.744C645.114 57.7413 644.933 56.6 644.933 55.32V54.808C644.933 53.5493 645.114 52.4187 645.477 51.416C645.839 50.4133 646.33 49.56 646.949 48.856C647.567 48.152 648.282 47.6187 649.093 47.256C649.925 46.872 650.81 46.68 651.749 46.68C652.879 46.68 653.786 46.872 654.469 47.256C655.173 47.64 655.727 48.2373 656.133 49.048H656.709V47.128H660.741V58.2C660.741 58.84 661.029 59.16 661.605 59.16H662.213V63H659.461C658.735 63 658.138 62.7867 657.669 62.36C657.221 61.9333 656.997 61.3787 656.997 60.696H656.421ZM652.837 59.608C654.01 59.608 654.949 59.224 655.653 58.456C656.357 57.6667 656.709 56.6 656.709 55.256V54.872C656.709 53.528 656.357 52.472 655.653 51.704C654.949 50.9147 654.01 50.52 652.837 50.52C651.663 50.52 650.725 50.9147 650.021 51.704C649.317 52.472 648.965 53.528 648.965 54.872V55.256C648.965 56.6 649.317 57.6667 650.021 58.456C650.725 59.224 651.663 59.608 652.837 59.608ZM669.774 63H665.742V47.128H669.774V49.496H670.35C670.713 48.6 671.3 47.9067 672.11 47.416C672.921 46.9253 673.87 46.68 674.958 46.68C675.726 46.68 676.441 46.808 677.102 47.064C677.785 47.2987 678.382 47.672 678.894 48.184C679.406 48.696 679.801 49.3467 680.078 50.136C680.377 50.9253 680.526 51.864 680.526 52.952V63H676.494V53.976C676.494 52.8453 676.217 51.96 675.662 51.32C675.129 50.6587 674.35 50.328 673.326 50.328C672.132 50.328 671.236 50.7333 670.638 51.544C670.062 52.3333 669.774 53.4 669.774 54.744V63ZM696.088 47.128H700.12V63H696.088V60.696H695.512C694.808 62.5307 693.293 63.448 690.968 63.448C690.179 63.448 689.443 63.32 688.76 63.064C688.077 62.808 687.48 62.4133 686.968 61.88C686.456 61.3467 686.051 60.6853 685.752 59.896C685.475 59.0853 685.336 58.136 685.336 57.048V47.128H689.368V56.216C689.368 57.3467 689.635 58.232 690.168 58.872C690.701 59.4907 691.501 59.8 692.568 59.8C693.784 59.8 694.669 59.416 695.224 58.648C695.8 57.8587 696.088 56.792 696.088 55.448V47.128ZM709.986 51.608C709.986 52.12 710.253 52.4933 710.786 52.728C711.319 52.9413 712.29 53.1227 713.698 53.272C715.319 53.4427 716.642 53.9333 717.666 54.744C718.69 55.5333 719.202 56.6427 719.202 58.072V58.264C719.202 59.8427 718.626 61.1013 717.474 62.04C716.322 62.9787 714.701 63.448 712.61 63.448C711.373 63.448 710.317 63.288 709.442 62.968C708.567 62.648 707.842 62.2533 707.266 61.784C706.69 61.2933 706.242 60.76 705.922 60.184C705.623 59.5867 705.421 59.0107 705.314 58.456L709.026 57.24C709.197 57.9227 709.549 58.52 710.082 59.032C710.637 59.544 711.479 59.8 712.61 59.8C713.613 59.8 714.295 59.6507 714.658 59.352C715.042 59.032 715.234 58.6907 715.234 58.328C715.234 58.1147 715.181 57.9227 715.074 57.752C714.989 57.56 714.818 57.3893 714.562 57.24C714.306 57.0693 713.954 56.9307 713.506 56.824C713.079 56.7173 712.535 56.632 711.874 56.568C710.082 56.4187 708.653 55.96 707.586 55.192C706.541 54.4027 706.018 53.2507 706.018 51.736V51.544C706.018 50.7547 706.189 50.0613 706.53 49.464C706.871 48.8667 707.319 48.3653 707.874 47.96C708.429 47.5333 709.069 47.2133 709.794 47C710.519 46.7867 711.266 46.68 712.034 46.68C713.037 46.68 713.901 46.808 714.626 47.064C715.373 47.2987 716.002 47.6187 716.514 48.024C717.026 48.408 717.442 48.8453 717.762 49.336C718.082 49.8053 718.327 50.264 718.498 50.712L714.85 52.184C714.658 51.608 714.327 51.16 713.858 50.84C713.389 50.4987 712.781 50.328 712.034 50.328C711.351 50.328 710.839 50.456 710.498 50.712C710.157 50.9467 709.986 51.2453 709.986 51.608Z" fill="black"/>
<path d="M844.295 98.552V107H840.071V84.6H848.839C849.991 84.6 850.994 84.792 851.847 85.176C852.701 85.5387 853.405 86.0293 853.959 86.648C854.535 87.2453 854.962 87.9387 855.239 88.728C855.538 89.496 855.687 90.2853 855.687 91.096V91.864C855.687 92.696 855.538 93.5173 855.239 94.328C854.962 95.1173 854.535 95.832 853.959 96.472C853.405 97.0907 852.701 97.592 851.847 97.976C850.994 98.36 849.991 98.552 848.839 98.552H844.295ZM844.295 94.52H848.423C849.362 94.52 850.098 94.264 850.631 93.752C851.186 93.24 851.463 92.5787 851.463 91.768V91.384C851.463 90.5733 851.186 89.912 850.631 89.4C850.098 88.888 849.362 88.632 848.423 88.632H844.295V94.52ZM859.761 103.16H865.329V88.44H859.953V84.6H869.361V103.16H874.545V107H859.761V103.16ZM890.203 91.128H894.235V107H890.203V104.696H889.627C888.923 106.531 887.408 107.448 885.083 107.448C884.294 107.448 883.558 107.32 882.875 107.064C882.192 106.808 881.595 106.413 881.083 105.88C880.571 105.347 880.166 104.685 879.867 103.896C879.59 103.085 879.451 102.136 879.451 101.048V91.128H883.483V100.216C883.483 101.347 883.75 102.232 884.283 102.872C884.816 103.491 885.616 103.8 886.683 103.8C887.899 103.8 888.784 103.416 889.339 102.648C889.915 101.859 890.203 100.792 890.203 99.448V91.128ZM898.597 91.128H903.301V84.6H907.333V91.128H913.061V94.968H907.333V102.2C907.333 102.84 907.621 103.16 908.197 103.16H912.485V107H905.765C905.039 107 904.442 106.765 903.973 106.296C903.525 105.827 903.301 105.229 903.301 104.504V94.968H898.597V91.128ZM934.19 99.256C934.19 100.579 933.966 101.752 933.518 102.776C933.07 103.779 932.462 104.632 931.694 105.336C930.926 106.019 930.041 106.541 929.038 106.904C928.057 107.267 927.022 107.448 925.934 107.448C924.846 107.448 923.801 107.267 922.798 106.904C921.817 106.541 920.942 106.019 920.174 105.336C919.406 104.632 918.798 103.779 918.35 102.776C917.902 101.752 917.678 100.579 917.678 99.256V98.872C917.678 97.5707 917.902 96.4187 918.35 95.416C918.798 94.392 919.406 93.528 920.174 92.824C920.942 92.12 921.817 91.5867 922.798 91.224C923.801 90.8613 924.846 90.68 925.934 90.68C927.022 90.68 928.057 90.8613 929.038 91.224C930.041 91.5867 930.926 92.12 931.694 92.824C932.462 93.528 933.07 94.392 933.518 95.416C933.966 96.4187 934.19 97.5707 934.19 98.872V99.256ZM925.934 103.608C926.51 103.608 927.054 103.512 927.566 103.32C928.078 103.128 928.526 102.851 928.91 102.488C929.294 102.125 929.593 101.688 929.806 101.176C930.041 100.643 930.158 100.045 930.158 99.384V98.744C930.158 98.0827 930.041 97.496 929.806 96.984C929.593 96.4507 929.294 96.0027 928.91 95.64C928.526 95.2773 928.078 95 927.566 94.808C927.054 94.616 926.51 94.52 925.934 94.52C925.358 94.52 924.814 94.616 924.302 94.808C923.79 95 923.342 95.2773 922.958 95.64C922.574 96.0027 922.265 96.4507 922.03 96.984C921.817 97.496 921.71 98.0827 921.71 98.744V99.384C921.71 100.045 921.817 100.643 922.03 101.176C922.265 101.688 922.574 102.125 922.958 102.488C923.342 102.851 923.79 103.128 924.302 103.32C924.814 103.512 925.358 103.608 925.934 103.608Z" fill="black"/>
<path d="M2.624 145.6H16.768V149.632H6.848V154.752H16.384V158.784H6.848V163.968H17.152V168H2.624V145.6ZM32.3618 165.696C31.9351 166.699 31.3378 167.413 30.5698 167.84C29.8018 168.245 28.9058 168.448 27.8818 168.448C26.9218 168.448 26.0151 168.267 25.1618 167.904C24.3298 167.541 23.5938 167.008 22.9538 166.304C22.3138 165.6 21.8018 164.747 21.4178 163.744C21.0551 162.741 20.8738 161.6 20.8738 160.32V159.808C20.8738 158.549 21.0551 157.419 21.4178 156.416C21.7804 155.413 22.2711 154.56 22.8898 153.856C23.5084 153.152 24.2231 152.619 25.0338 152.256C25.8658 151.872 26.7511 151.68 27.6898 151.68C28.8204 151.68 29.7271 151.872 30.4098 152.256C31.1138 152.64 31.6684 153.237 32.0738 154.048H32.6498V152.128H36.6818V163.2C36.6818 163.84 36.9698 164.16 37.5458 164.16H38.1538V168H35.4018C34.6764 168 34.0791 167.787 33.6098 167.36C33.1618 166.933 32.9378 166.379 32.9378 165.696H32.3618ZM28.7778 164.608C29.9511 164.608 30.8898 164.224 31.5938 163.456C32.2978 162.667 32.6498 161.6 32.6498 160.256V159.872C32.6498 158.528 32.2978 157.472 31.5938 156.704C30.8898 155.915 29.9511 155.52 28.7778 155.52C27.6044 155.52 26.6658 155.915 25.9618 156.704C25.2578 157.472 24.9058 158.528 24.9058 159.872V160.256C24.9058 161.6 25.2578 162.667 25.9618 163.456C26.6658 164.224 27.6044 164.608 28.7778 164.608ZM40.9155 152.128H47.6355V154.432H48.2115C48.5102 153.557 49.0115 152.885 49.7155 152.416C50.4408 151.925 51.3048 151.68 52.3075 151.68C53.8862 151.68 55.1555 152.181 56.1155 153.184C57.0755 154.165 57.5555 155.669 57.5555 157.696V158.4L53.3955 158.784V158.336C53.3955 157.461 53.1715 156.768 52.7235 156.256C52.2755 155.723 51.6035 155.456 50.7075 155.456C49.8115 155.456 49.1075 155.765 48.5955 156.384C48.0835 157.003 47.8275 157.888 47.8275 159.04V164.16H51.4755V168H40.5315V164.16H43.7955V155.968H40.9155V152.128ZM60.8293 152.128H65.5333V145.6H69.5653V152.128H75.2933V155.968H69.5653V163.2C69.5653 163.84 69.8533 164.16 70.4293 164.16H74.7173V168H67.9973C67.2719 168 66.6746 167.765 66.2053 167.296C65.7573 166.827 65.5333 166.229 65.5333 165.504V155.968H60.8293V152.128ZM84.967 168H80.935V145.6H84.967V154.688H85.543C85.9483 153.728 86.5457 152.992 87.335 152.48C88.1243 151.947 89.095 151.68 90.247 151.68C91.0363 151.68 91.7617 151.808 92.423 152.064C93.0843 152.32 93.6603 152.704 94.151 153.216C94.6417 153.728 95.0257 154.389 95.303 155.2C95.5803 155.989 95.719 156.928 95.719 158.016V168H91.687V158.976C91.687 157.845 91.4097 156.96 90.855 156.32C90.3217 155.659 89.543 155.328 88.519 155.328C87.3243 155.328 86.4283 155.733 85.831 156.544C85.255 157.333 84.967 158.4 84.967 159.744V168Z" fill="black"/>
<path d="M101.09 175H99.2V164.5H101.09V168.76H101.36C101.55 168.31 101.83 167.965 102.2 167.725C102.57 167.475 103.025 167.35 103.565 167.35C103.935 167.35 104.275 167.41 104.585 167.53C104.895 167.65 105.165 167.83 105.395 168.07C105.625 168.31 105.805 168.62 105.935 169C106.065 169.37 106.13 169.81 106.13 170.32V175H104.24V170.77C104.24 170.24 104.11 169.825 103.85 169.525C103.6 169.215 103.235 169.06 102.755 169.06C102.195 169.06 101.775 169.25 101.495 169.63C101.225 170 101.09 170.5 101.09 171.13V175ZM115.645 171.37C115.645 171.99 115.54 172.54 115.33 173.02C115.12 173.49 114.835 173.89 114.475 174.22C114.115 174.54 113.7 174.785 113.23 174.955C112.77 175.125 112.285 175.21 111.775 175.21C111.265 175.21 110.775 175.125 110.305 174.955C109.845 174.785 109.435 174.54 109.075 174.22C108.715 173.89 108.43 173.49 108.22 173.02C108.01 172.54 107.905 171.99 107.905 171.37V171.19C107.905 170.58 108.01 170.04 108.22 169.57C108.43 169.09 108.715 168.685 109.075 168.355C109.435 168.025 109.845 167.775 110.305 167.605C110.775 167.435 111.265 167.35 111.775 167.35C112.285 167.35 112.77 167.435 113.23 167.605C113.7 167.775 114.115 168.025 114.475 168.355C114.835 168.685 115.12 169.09 115.33 169.57C115.54 170.04 115.645 170.58 115.645 171.19V171.37ZM111.775 173.41C112.045 173.41 112.3 173.365 112.54 173.275C112.78 173.185 112.99 173.055 113.17 172.885C113.35 172.715 113.49 172.51 113.59 172.27C113.7 172.02 113.755 171.74 113.755 171.43V171.13C113.755 170.82 113.7 170.545 113.59 170.305C113.49 170.055 113.35 169.845 113.17 169.675C112.99 169.505 112.78 169.375 112.54 169.285C112.3 169.195 112.045 169.15 111.775 169.15C111.505 169.15 111.25 169.195 111.01 169.285C110.77 169.375 110.56 169.505 110.38 169.675C110.2 169.845 110.055 170.055 109.945 170.305C109.845 170.545 109.795 170.82 109.795 171.13V171.43C109.795 171.74 109.845 172.02 109.945 172.27C110.055 172.51 110.2 172.715 110.38 172.885C110.56 173.055 110.77 173.185 111.01 173.275C111.25 173.365 111.505 173.41 111.775 173.41ZM125.009 175H123.119V169.78C123.119 169.57 123.064 169.415 122.954 169.315C122.854 169.205 122.719 169.15 122.549 169.15C122.349 169.15 122.189 169.21 122.069 169.33C121.959 169.45 121.904 169.63 121.904 169.87V175H120.014V169.78C120.014 169.57 119.954 169.415 119.834 169.315C119.724 169.205 119.589 169.15 119.429 169.15C119.249 169.15 119.099 169.21 118.979 169.33C118.859 169.45 118.799 169.63 118.799 169.87V175H116.909V167.56H118.799V168.28H119.069C119.129 168.01 119.264 167.79 119.474 167.62C119.694 167.44 119.979 167.35 120.329 167.35C120.659 167.35 120.939 167.44 121.169 167.62C121.399 167.79 121.554 168.01 121.634 168.28H121.904C121.984 168.01 122.149 167.79 122.399 167.62C122.659 167.44 122.979 167.35 123.359 167.35C123.859 167.35 124.259 167.52 124.559 167.86C124.859 168.19 125.009 168.65 125.009 169.24V175ZM128.389 171.895C128.399 172.115 128.449 172.32 128.539 172.51C128.639 172.69 128.769 172.85 128.929 172.99C129.099 173.12 129.289 173.225 129.499 173.305C129.719 173.375 129.949 173.41 130.189 173.41C130.659 173.41 131.019 173.33 131.269 173.17C131.519 173 131.699 172.8 131.809 172.57L133.429 173.47C133.339 173.66 133.214 173.86 133.054 174.07C132.894 174.27 132.684 174.455 132.424 174.625C132.174 174.795 131.864 174.935 131.494 175.045C131.134 175.155 130.709 175.21 130.219 175.21C129.659 175.21 129.149 175.12 128.689 174.94C128.229 174.76 127.829 174.5 127.489 174.16C127.159 173.82 126.899 173.405 126.709 172.915C126.529 172.425 126.439 171.87 126.439 171.25V171.16C126.439 170.59 126.534 170.07 126.724 169.6C126.924 169.13 127.194 168.73 127.534 168.4C127.874 168.07 128.269 167.815 128.719 167.635C129.179 167.445 129.669 167.35 130.189 167.35C130.829 167.35 131.379 167.465 131.839 167.695C132.299 167.915 132.679 168.2 132.979 168.55C133.279 168.89 133.499 169.27 133.639 169.69C133.779 170.1 133.849 170.5 133.849 170.89V171.895H128.389ZM130.174 169.06C129.694 169.06 129.304 169.185 129.004 169.435C128.704 169.675 128.509 169.955 128.419 170.275H131.929C131.869 169.925 131.679 169.635 131.359 169.405C131.049 169.175 130.654 169.06 130.174 169.06Z" fill="black"/>
<path d="M931.33 109.5H934.81L935.41 117.39V118.92H935.77V117.39L936.37 109.5H939.85V120H938.05V112.98L938.23 110.58H937.87L937.09 120H934.12L933.31 110.58H932.95L933.13 112.98V120H931.33V109.5ZM946.17 118.92C945.97 119.39 945.69 119.725 945.33 119.925C944.97 120.115 944.55 120.21 944.07 120.21C943.62 120.21 943.195 120.125 942.795 119.955C942.405 119.785 942.06 119.535 941.76 119.205C941.46 118.875 941.22 118.475 941.04 118.005C940.87 117.535 940.785 117 940.785 116.4V116.16C940.785 115.57 940.87 115.04 941.04 114.57C941.21 114.1 941.44 113.7 941.73 113.37C942.02 113.04 942.355 112.79 942.735 112.62C943.125 112.44 943.54 112.35 943.98 112.35C944.51 112.35 944.935 112.44 945.255 112.62C945.585 112.8 945.845 113.08 946.035 113.46H946.305V112.56H948.195V117.75C948.195 118.05 948.33 118.2 948.6 118.2H948.885V120H947.595C947.255 120 946.975 119.9 946.755 119.7C946.545 119.5 946.44 119.24 946.44 118.92H946.17ZM944.49 118.41C945.04 118.41 945.48 118.23 945.81 117.87C946.14 117.5 946.305 117 946.305 116.37V116.19C946.305 115.56 946.14 115.065 945.81 114.705C945.48 114.335 945.04 114.15 944.49 114.15C943.94 114.15 943.5 114.335 943.17 114.705C942.84 115.065 942.675 115.56 942.675 116.19V116.37C942.675 117 942.84 117.5 943.17 117.87C943.5 118.23 943.94 118.41 944.49 118.41ZM955.579 112.56H957.469V121.83C957.469 122.17 957.359 122.45 957.139 122.67C956.929 122.89 956.654 123 956.314 123H951.889V121.2H955.174C955.444 121.2 955.579 121.05 955.579 120.75V118.92H955.309C954.979 119.78 954.269 120.21 953.179 120.21C952.809 120.21 952.464 120.15 952.144 120.03C951.824 119.91 951.544 119.725 951.304 119.475C951.064 119.225 950.874 118.915 950.734 118.545C950.604 118.165 950.539 117.72 950.539 117.21V112.56H952.429V116.82C952.429 117.35 952.554 117.765 952.804 118.065C953.054 118.355 953.429 118.5 953.929 118.5C954.499 118.5 954.914 118.32 955.174 117.96C955.444 117.59 955.579 117.09 955.579 116.46V112.56ZM961.299 120H959.409V109.5H961.299V113.64H961.569C961.769 113.23 962.059 112.915 962.439 112.695C962.819 112.465 963.304 112.35 963.894 112.35C964.334 112.35 964.749 112.435 965.139 112.605C965.539 112.775 965.884 113.025 966.174 113.355C966.474 113.675 966.709 114.07 966.879 114.54C967.059 115.01 967.149 115.545 967.149 116.145V116.415C967.149 117.025 967.064 117.565 966.894 118.035C966.724 118.505 966.494 118.905 966.204 119.235C965.914 119.555 965.569 119.8 965.169 119.97C964.779 120.13 964.354 120.21 963.894 120.21C963.554 120.21 963.259 120.175 963.009 120.105C962.759 120.035 962.539 119.94 962.349 119.82C962.169 119.7 962.014 119.565 961.884 119.415C961.764 119.255 961.659 119.09 961.569 118.92H961.299V120ZM963.279 118.41C963.869 118.41 964.344 118.23 964.704 117.87C965.074 117.5 965.259 117 965.259 116.37V116.19C965.259 115.56 965.074 115.065 964.704 114.705C964.344 114.335 963.869 114.15 963.279 114.15C962.689 114.15 962.209 114.34 961.839 114.72C961.479 115.09 961.299 115.58 961.299 116.19V116.37C961.299 116.98 961.479 117.475 961.839 117.855C962.209 118.225 962.689 118.41 963.279 118.41ZM970.573 116.895C970.583 117.115 970.633 117.32 970.723 117.51C970.823 117.69 970.953 117.85 971.113 117.99C971.283 118.12 971.473 118.225 971.683 118.305C971.903 118.375 972.133 118.41 972.373 118.41C972.843 118.41 973.203 118.33 973.453 118.17C973.703 118 973.883 117.8 973.993 117.57L975.613 118.47C975.523 118.66 975.398 118.86 975.238 119.07C975.078 119.27 974.868 119.455 974.608 119.625C974.358 119.795 974.048 119.935 973.678 120.045C973.318 120.155 972.893 120.21 972.403 120.21C971.843 120.21 971.333 120.12 970.873 119.94C970.413 119.76 970.013 119.5 969.673 119.16C969.343 118.82 969.083 118.405 968.893 117.915C968.713 117.425 968.623 116.87 968.623 116.25V116.16C968.623 115.59 968.718 115.07 968.908 114.6C969.108 114.13 969.378 113.73 969.718 113.4C970.058 113.07 970.453 112.815 970.903 112.635C971.363 112.445 971.853 112.35 972.373 112.35C973.013 112.35 973.563 112.465 974.023 112.695C974.483 112.915 974.863 113.2 975.163 113.55C975.463 113.89 975.683 114.27 975.823 114.69C975.963 115.1 976.033 115.5 976.033 115.89V116.895H970.573ZM972.358 114.06C971.878 114.06 971.488 114.185 971.188 114.435C970.888 114.675 970.693 114.955 970.603 115.275H974.113C974.053 114.925 973.863 114.635 973.543 114.405C973.233 114.175 972.838 114.06 972.358 114.06Z" fill="black"/>
<path d="M81.5233 158.5C81.5233 158.5 169.663 195.923 231.977 205.5C346.769 223.141 413.167 153.449 528.244 170C581.486 177.658 611.515 225.467 658.814 205.5C693.564 190.83 677.936 158.889 705.209 137C745.178 104.922 847.24 137.412 843.07 93.5C839.01 50.7567 761.882 61.4216 705.209 58.5C633.931 54.8254 587.76 123.317 528.244 93.5C498.638 78.6676 503.994 54.0316 476.546 37C390.743 -16.2424 235.032 190.939 208.779 109.5C202.54 90.1473 208.779 58.5 208.779 58.5" stroke="black"/>
</svg>
